<?xml version="1.0" encoding="UTF-8"?>
<!DOCTYPE svg PUBLIC "-//W3C//DTD SVG 1.1//EN" "http://www.w3.org/Graphics/SVG/1.1/DTD/svg11.dtd">
<svg xmlns="http://www.w3.org/2000/svg" version="1.1" width="627px" height="353px" style="shape-rendering:geometricPrecision; text-rendering:geometricPrecision; image-rendering:optimizeQuality; fill-rule:evenodd; clip-rule:evenodd" xmlns:xlink="http://www.w3.org/1999/xlink">
<g><path style="opacity:1" fill="#fefefe" d="M -0.5,-0.5 C 208.5,-0.5 417.5,-0.5 626.5,-0.5C 626.5,117.167 626.5,234.833 626.5,352.5C 417.5,352.5 208.5,352.5 -0.5,352.5C -0.5,234.833 -0.5,117.167 -0.5,-0.5 Z"/></g>
<g><path style="opacity:1" fill="#fe3009" d="M 301.5,13.5 C 299.544,15.1484 297.211,15.8151 294.5,15.5C 294.177,11.774 294.511,8.10728 295.5,4.5C 297.644,3.04654 299.477,3.37987 301,5.5C 301.497,8.14603 301.664,10.8127 301.5,13.5 Z"/></g>
<g><path style="opacity:1" fill="#fe6505" d="M 301.5,13.5 C 301.5,16.8333 301.5,20.1667 301.5,23.5C 300.566,24.5676 300.232,25.901 300.5,27.5C 298.5,27.5 296.5,27.5 294.5,27.5C 294.5,23.5 294.5,19.5 294.5,15.5C 297.211,15.8151 299.544,15.1484 301.5,13.5 Z"/></g>
<g><path style="opacity:1" fill="#fe3c0b" d="M 250.5,34.5 C 250.03,35.6935 249.03,36.3601 247.5,36.5C 245.793,36.2716 244.126,35.9383 242.5,35.5C 240.112,32.5518 238.112,29.3852 236.5,26C 236.333,23.5 237.5,22.3333 240,22.5C 244.628,25.3604 248.128,29.3604 250.5,34.5 Z"/></g>
<g><path style="opacity:1" fill="#fe3a0a" d="M 354.5,33.5 C 352.194,33.9926 349.861,34.3259 347.5,34.5C 347.5,33.5 347.5,32.5 347.5,31.5C 349.112,28.462 351.112,25.6287 353.5,23C 358.083,22.0663 359.583,23.8996 358,28.5C 357.003,30.3231 355.836,31.9897 354.5,33.5 Z"/></g>
<g><path style="opacity:1" fill="#fe981a" d="M 301.5,23.5 C 301.666,27.8461 301.499,32.1794 301,36.5C 299.267,38.6015 297.267,38.9348 295,37.5C 294.502,34.1832 294.335,30.8499 294.5,27.5C 296.5,27.5 298.5,27.5 300.5,27.5C 300.232,25.901 300.566,24.5676 301.5,23.5 Z"/></g>
<g><path style="opacity:1" fill="#fe680f" d="M 347.5,31.5 C 347.5,32.5 347.5,33.5 347.5,34.5C 349.861,34.3259 352.194,33.9926 354.5,33.5C 352.518,36.8103 350.185,39.8103 347.5,42.5C 344.612,43.0102 342.279,42.3435 340.5,40.5C 342.482,37.1897 344.815,34.1897 347.5,31.5 Z"/></g>
<g><path style="opacity:1" fill="#fe810f" d="M 250.5,34.5 C 253.087,38.2666 255.92,41.9333 259,45.5C 260.333,51.1667 258.333,52.8333 253,50.5C 249.49,45.4709 245.99,40.4709 242.5,35.5C 244.126,35.9383 245.793,36.2716 247.5,36.5C 249.03,36.3601 250.03,35.6935 250.5,34.5 Z"/></g>
<g><path style="opacity:1" fill="#fe9416" d="M 340.5,40.5 C 342.279,42.3435 344.612,43.0102 347.5,42.5C 346.008,46.856 343.174,49.856 339,51.5C 336.833,51.3306 335.666,50.164 335.5,48C 336.623,45.061 338.289,42.561 340.5,40.5 Z"/></g>
<g><path style="opacity:1" fill="#16257f" d="M 289.5,48.5 C 325.469,47.9986 347.969,64.9986 357,99.5C 357.667,124.167 357.667,148.833 357,173.5C 353.351,181.505 347.184,184.339 338.5,182C 334.942,180.108 332.442,177.275 331,173.5C 330.5,163.172 330.334,152.839 330.5,142.5C 308.167,142.5 285.833,142.5 263.5,142.5C 263.666,152.839 263.5,163.172 263,173.5C 259.219,181.305 253.053,184.138 244.5,182C 240.942,180.108 238.442,177.275 237,173.5C 236.333,148.833 236.333,124.167 237,99.5C 243.58,71.0843 261.08,54.0843 289.5,48.5 Z"/></g>
<g><path style="opacity:1" fill="#fe3f07" d="M 223.5,77.5 C 217.355,78.4902 211.022,78.8235 204.5,78.5C 199.179,76.1946 199.179,73.8613 204.5,71.5C 210.851,73.5062 217.184,75.5062 223.5,77.5 Z"/></g>
<g><path style="opacity:1" fill="#fdfdfd" d="M 289.5,75.5 C 317.066,74.7338 330.733,88.0671 330.5,115.5C 308.167,115.5 285.833,115.5 263.5,115.5C 262.147,95.5414 270.813,82.2081 289.5,75.5 Z"/></g>
<g><path style="opacity:1" fill="#fe540d" d="M 381.5,81.5 C 375.31,81.8229 369.31,81.4896 363.5,80.5C 372.337,76.8326 381.504,73.8326 391,71.5C 394.293,72.1379 395.293,74.1379 394,77.5C 389.996,79.3346 385.83,80.6679 381.5,81.5 Z"/></g>
<g><path style="opacity:1" fill="#fe6c0d" d="M 223.5,77.5 C 226.179,78.2261 228.846,79.0594 231.5,80C 232.756,80.4169 233.423,81.2502 233.5,82.5C 229.03,83.4861 224.363,83.8195 219.5,83.5C 214.147,82.5861 209.147,80.9194 204.5,78.5C 211.022,78.8235 217.355,78.4902 223.5,77.5 Z"/></g>
<g><path style="opacity:1" fill="#fe800e" d="M 363.5,80.5 C 369.31,81.4896 375.31,81.8229 381.5,81.5C 376.213,83.7654 370.713,85.7654 365,87.5C 361.137,85.7308 360.637,83.3974 363.5,80.5 Z"/></g>
<g><path style="opacity:1" fill="#fe9224" d="M 233.5,82.5 C 234.465,83.7211 234.298,85.0544 233,86.5C 228.197,87.0704 223.697,86.0704 219.5,83.5C 224.363,83.8195 229.03,83.4861 233.5,82.5 Z"/></g>
<g><path style="opacity:1" fill="#182680" d="M 341.5,245.5 C 369.592,244.774 387.759,257.774 396,284.5C 397.654,293.544 395.987,301.878 391,309.5C 387.312,313.428 382.812,315.928 377.5,317C 365.5,317.667 353.5,317.667 341.5,317C 324.956,308.7 320.789,296.2 329,279.5C 342,266.167 355,266.167 368,279.5C 372.086,286.217 373.586,293.55 372.5,301.5C 378.446,300.88 381.113,297.547 380.5,291.5C 377.362,273.064 366.362,263.064 347.5,261.5C 333.282,262.877 323.448,270.211 318,283.5C 313.79,302.22 320.29,315.72 337.5,324C 347.093,325.255 356.76,325.921 366.5,326C 372.453,328.525 373.953,332.691 371,338.5C 345.51,347.115 324.51,340.782 308,319.5C 294.022,291.115 300.188,268.282 326.5,251C 331.462,248.726 336.462,246.892 341.5,245.5 Z"/></g>
<g><path style="opacity:1" fill="#ff2609" d="M 73.5,274.5 C 73.5,276.167 73.5,277.833 73.5,279.5C 68.8333,279.5 64.1667,279.5 59.5,279.5C 53.4195,261.974 42.0862,257.474 25.5,266C 21.4387,269.623 19.1054,274.123 18.5,279.5C 17.596,280.209 17.2627,281.209 17.5,282.5C 13.4071,282.857 9.4071,282.857 5.5,282.5C 4.51298,279.232 4.17964,275.898 4.5,272.5C 7.9084,259.257 16.2417,250.757 29.5,247C 52.3626,243.405 67.0292,252.572 73.5,274.5 Z"/></g>
<g><path style="opacity:1" fill="#fff8f5" d="M 59.5,279.5 C 59.7564,281.792 59.4231,283.959 58.5,286C 45.1708,286.5 31.8375,286.667 18.5,286.5C 18.5,284.167 18.5,281.833 18.5,279.5C 19.1054,274.123 21.4387,269.623 25.5,266C 42.0862,257.474 53.4195,261.974 59.5,279.5 Z"/></g>
<g><path style="opacity:1" fill="#ff1c07" d="M 518.5,270.5 C 519.087,271.767 519.087,272.767 518.5,273.5C 490.833,272.167 463.167,272.167 435.5,273.5C 433.925,272.544 432.258,271.877 430.5,271.5C 429.937,265.232 432.771,261.899 439,261.5C 441.997,261.667 444.663,262.667 447,264.5C 458.614,260.58 469.28,262.246 479,269.5C 490.607,261.193 502.774,260.359 515.5,267C 516.71,268.039 517.71,269.206 518.5,270.5 Z"/></g>
<g><path style="opacity:1" fill="#ff1f07" d="M 617.5,276.5 C 615.257,277.812 612.59,278.478 609.5,278.5C 604.538,278.234 599.871,277.901 595.5,277.5C 595.167,277.5 594.833,277.5 594.5,277.5C 591.177,276.638 587.677,275.972 584,275.5C 579.256,276.048 574.422,276.381 569.5,276.5C 568.833,276.167 568.167,275.833 567.5,275.5C 568.127,274.583 568.461,273.583 568.5,272.5C 576.874,263.434 587.207,260.267 599.5,263C 607.612,264.869 613.612,269.369 617.5,276.5 Z"/></g>
<g><path style="opacity:1" fill="#ff2108" d="M 258.5,287.5 C 258.5,289.833 258.5,292.167 258.5,294.5C 254.563,294.207 250.73,294.54 247,295.5C 245.224,293.789 244.058,291.789 243.5,289.5C 240.038,280.426 233.371,276.426 223.5,277.5C 216.492,277.666 209.492,277.5 202.5,277C 203.582,275.67 204.249,274.17 204.5,272.5C 212.563,263.647 222.563,260.48 234.5,263C 237.263,263.55 239.93,264.383 242.5,265.5C 244.556,264.952 246.223,263.786 247.5,262C 258.065,260.227 261.899,264.393 259,274.5C 257.647,275.685 256.48,277.019 255.5,278.5C 257.105,281.314 258.105,284.314 258.5,287.5 Z"/></g>
<g><path style="opacity:1" fill="#ff350b" d="M 518.5,270.5 C 524.688,276.051 527.354,283.051 526.5,291.5C 522.259,291.379 517.926,291.379 513.5,291.5C 513.036,289.025 512.036,287.025 510.5,285.5C 506.068,277.314 499.734,275.48 491.5,280C 486.962,284.915 485.295,290.749 486.5,297.5C 481.833,297.5 477.167,297.5 472.5,297.5C 472.813,293.958 472.479,290.625 471.5,287.5C 467.453,277.976 460.786,275.476 451.5,280C 446.962,284.915 445.295,290.749 446.5,297.5C 441.833,297.5 437.167,297.5 432.5,297.5C 432.5,292.5 432.5,287.5 432.5,282.5C 433.946,278.49 433.28,274.823 430.5,271.5C 432.258,271.877 433.925,272.544 435.5,273.5C 463.167,272.167 490.833,272.167 518.5,273.5C 519.087,272.767 519.087,271.767 518.5,270.5 Z"/></g>
<g><path style="opacity:1" fill="#fffbfb" d="M 223.5,277.5 C 233.371,276.426 240.038,280.426 243.5,289.5C 244.192,304.972 236.859,311.472 221.5,309C 218.669,306.999 216.003,304.833 213.5,302.5C 209.035,290.873 212.368,282.54 223.5,277.5 Z"/></g>
<g><path style="opacity:1" fill="#ff350b" d="M 155.5,282.5 C 155.5,283.5 155.5,284.5 155.5,285.5C 143.167,285.5 130.833,285.5 118.5,285.5C 118.5,284.167 118.5,282.833 118.5,281.5C 118.953,280.542 119.619,279.708 120.5,279C 131.167,278.333 141.833,278.333 152.5,279C 153.71,280.039 154.71,281.206 155.5,282.5 Z"/></g>
<g><path style="opacity:1" fill="#f8f8fb" d="M 345.5,285.5 C 355.502,286.114 359.169,291.448 356.5,301.5C 352.818,301.665 349.152,301.499 345.5,301C 341.139,298.774 339.639,295.274 341,290.5C 342.707,288.963 344.207,287.296 345.5,285.5 Z"/></g>
<g><path style="opacity:1" fill="#ff5915" d="M 118.5,281.5 C 118.5,282.833 118.5,284.167 118.5,285.5C 130.833,285.5 143.167,285.5 155.5,285.5C 155.5,284.5 155.5,283.5 155.5,282.5C 156.756,284.726 156.756,287.059 155.5,289.5C 143.167,289.5 130.833,289.5 118.5,289.5C 117.167,286.833 117.167,284.167 118.5,281.5 Z"/></g>
<g><path style="opacity:1" fill="#ff400c" d="M 568.5,272.5 C 568.461,273.583 568.127,274.583 567.5,275.5C 568.167,275.833 568.833,276.167 569.5,276.5C 574.422,276.381 579.256,276.048 584,275.5C 587.677,275.972 591.177,276.638 594.5,277.5C 587.716,276.754 582.382,279.087 578.5,284.5C 577.957,284.56 577.624,284.893 577.5,285.5C 586.992,286.822 596.325,286.822 605.5,285.5C 603.009,281.665 599.675,278.998 595.5,277.5C 599.871,277.901 604.538,278.234 609.5,278.5C 612.59,278.478 615.257,277.812 617.5,276.5C 620.488,279.481 622.154,283.148 622.5,287.5C 622.5,289.833 622.5,292.167 622.5,294.5C 602.167,294.5 581.833,294.5 561.5,294.5C 561.505,290.466 561.838,286.466 562.5,282.5C 563.498,278.495 565.498,275.161 568.5,272.5 Z"/></g>
<g><path style="opacity:1" fill="#ffa58f" d="M 578.5,284.5 C 587.318,285.493 596.318,285.827 605.5,285.5C 596.325,286.822 586.992,286.822 577.5,285.5C 577.624,284.893 577.957,284.56 578.5,284.5 Z"/></g>
<g><path style="opacity:1" fill="#fff9f8" d="M 594.5,277.5 C 594.833,277.5 595.167,277.5 595.5,277.5C 599.675,278.998 603.009,281.665 605.5,285.5C 596.318,285.827 587.318,285.493 578.5,284.5C 582.382,279.087 587.716,276.754 594.5,277.5 Z"/></g>
<g><path style="opacity:1" fill="#ff370d" d="M 204.5,272.5 C 204.249,274.17 203.582,275.67 202.5,277C 209.492,277.5 216.492,277.666 223.5,277.5C 212.368,282.54 209.035,290.873 213.5,302.5C 213.414,303.496 213.748,304.329 214.5,305C 209.177,305.499 203.844,305.666 198.5,305.5C 195.23,295.494 196.063,285.827 201,276.5C 201.949,274.907 203.115,273.574 204.5,272.5 Z"/></g>
<g><path style="opacity:1" fill="#ff520e" d="M 4.5,272.5 C 4.17964,275.898 4.51298,279.232 5.5,282.5C 9.4071,282.857 13.4071,282.857 17.5,282.5C 17.2627,281.209 17.596,280.209 18.5,279.5C 18.5,281.833 18.5,284.167 18.5,286.5C 31.8375,286.667 45.1708,286.5 58.5,286C 59.4231,283.959 59.7564,281.792 59.5,279.5C 64.1667,279.5 68.8333,279.5 73.5,279.5C 73.5,285.5 73.5,291.5 73.5,297.5C 50.1667,297.5 26.8333,297.5 3.5,297.5C 3.17395,288.983 3.50728,280.65 4.5,272.5 Z"/></g>
<g><path style="opacity:1" fill="#ff731c" d="M 118.5,289.5 C 130.833,289.5 143.167,289.5 155.5,289.5C 154.657,291.173 153.324,292.34 151.5,293C 141.5,293.667 131.5,293.667 121.5,293C 120.29,291.961 119.29,290.794 118.5,289.5 Z"/></g>
<g><path style="opacity:1" fill="#ff6816" d="M 3.5,297.5 C 26.8333,297.5 50.1667,297.5 73.5,297.5C 73.6663,304.175 73.4996,310.842 73,317.5C 68.6893,316.877 64.1893,316.877 59.5,317.5C 59.5,312.167 59.5,306.833 59.5,301.5C 45.8333,301.5 32.1667,301.5 18.5,301.5C 17.5166,305.298 17.1832,309.298 17.5,313.5C 12.8333,313.5 8.16667,313.5 3.5,313.5C 3.5,308.167 3.5,302.833 3.5,297.5 Z"/></g>
<g><path style="opacity:1" fill="#ff5817" d="M 562.5,282.5 C 561.838,286.466 561.505,290.466 561.5,294.5C 581.833,294.5 602.167,294.5 622.5,294.5C 622.5,292.167 622.5,289.833 622.5,287.5C 623.638,290.304 623.805,293.304 623,296.5C 622.167,298.667 620.667,300.167 618.5,301C 605.171,301.5 591.837,301.667 578.5,301.5C 574.22,303.079 569.72,304.079 565,304.5C 563.532,303.011 562.032,301.677 560.5,300.5C 560.334,295.489 560.501,290.489 561,285.5C 561.232,284.263 561.732,283.263 562.5,282.5 Z"/></g>
<g><path style="opacity:1" fill="#fe5e13" d="M 432.5,282.5 C 432.5,287.5 432.5,292.5 432.5,297.5C 437.167,297.5 441.833,297.5 446.5,297.5C 446.5,301.5 446.5,305.5 446.5,309.5C 441.405,309.221 436.405,309.555 431.5,310.5C 431.173,300.985 431.506,291.652 432.5,282.5 Z"/></g>
<g><path style="opacity:1" fill="#ff5a10" d="M 472.5,297.5 C 477.167,297.5 481.833,297.5 486.5,297.5C 486.5,300.5 486.5,303.5 486.5,306.5C 482.199,306.958 477.865,307.291 473.5,307.5C 472.513,304.232 472.18,300.898 472.5,297.5 Z"/></g>
<g><path style="opacity:1" fill="#ff5510" d="M 510.5,285.5 C 512.036,287.025 513.036,289.025 513.5,291.5C 517.926,291.379 522.259,291.379 526.5,291.5C 526.5,295.5 526.5,299.5 526.5,303.5C 522.044,303.646 517.378,303.646 512.5,303.5C 512.795,301.265 512.461,299.265 511.5,297.5C 511.763,293.4 511.43,289.4 510.5,285.5 Z"/></g>
<g><path style="opacity:1" fill="#ff6e18" d="M 560.5,300.5 C 562.032,301.677 563.532,303.011 565,304.5C 569.72,304.079 574.22,303.079 578.5,301.5C 580.508,306.328 584.175,309.161 589.5,310C 594.167,310.333 598.833,310.667 603.5,311C 605.141,312.129 606.141,313.629 606.5,315.5C 594.295,316.803 581.961,316.803 569.5,315.5C 564.843,311.575 561.843,306.575 560.5,300.5 Z"/></g>
<g><path style="opacity:1" fill="#ff5412" d="M 243.5,289.5 C 244.058,291.789 245.224,293.789 247,295.5C 250.73,294.54 254.563,294.207 258.5,294.5C 258.5,302.833 258.5,311.167 258.5,319.5C 242.5,319.5 226.5,319.5 210.5,319.5C 204.74,316.402 200.74,311.735 198.5,305.5C 203.844,305.666 209.177,305.499 214.5,305C 213.748,304.329 213.414,303.496 213.5,302.5C 216.003,304.833 218.669,306.999 221.5,309C 236.859,311.472 244.192,304.972 243.5,289.5 Z"/></g>
<g><path style="opacity:1" fill="#ff6d15" d="M 511.5,297.5 C 512.461,299.265 512.795,301.265 512.5,303.5C 517.378,303.646 522.044,303.646 526.5,303.5C 526.5,308.833 526.5,314.167 526.5,319.5C 521.833,319.5 517.167,319.5 512.5,319.5C 512.815,315.629 512.482,311.962 511.5,308.5C 511.5,304.833 511.5,301.167 511.5,297.5 Z"/></g>
<g><path style="opacity:1" fill="#ff7818" d="M 446.5,309.5 C 446.666,313.514 446.499,317.514 446,321.5C 441.959,326.313 437.625,326.646 433,322.5C 431.646,318.637 431.146,314.637 431.5,310.5C 436.405,309.555 441.405,309.221 446.5,309.5 Z"/></g>
<g><path style="opacity:1" fill="#ff8220" d="M 18.5,301.5 C 18.6662,307.842 18.4995,314.175 18,320.5C 13.7481,326.653 9.08142,326.986 4,321.5C 3.50258,318.854 3.33591,316.187 3.5,313.5C 8.16667,313.5 12.8333,313.5 17.5,313.5C 17.1832,309.298 17.5166,305.298 18.5,301.5 Z"/></g>
<g><path style="opacity:1" fill="#ff8529" d="M 73.5,274.5 C 74.6612,289.661 74.8279,304.994 74,320.5C 69.7481,326.653 65.0814,326.986 60,321.5C 59.51,320.207 59.3433,318.873 59.5,317.5C 64.1893,316.877 68.6893,316.877 73,317.5C 73.4996,310.842 73.6663,304.175 73.5,297.5C 73.5,291.5 73.5,285.5 73.5,279.5C 73.5,277.833 73.5,276.167 73.5,274.5 Z"/></g>
<g><path style="opacity:1" fill="#ff7719" d="M 471.5,287.5 C 472.479,290.625 472.813,293.958 472.5,297.5C 472.18,300.898 472.513,304.232 473.5,307.5C 477.865,307.291 482.199,306.958 486.5,306.5C 486.666,311.511 486.499,316.511 486,321.5C 481.959,326.313 477.625,326.646 473,322.5C 471.543,310.935 471.043,299.268 471.5,287.5 Z"/></g>
<g><path style="opacity:1" fill="#ff651c" d="M 258.5,287.5 C 259.784,300.026 259.784,312.693 258.5,325.5C 255.962,325.507 253.462,325.841 251,326.5C 249.674,326.245 248.674,325.578 248,324.5C 246.951,326.107 245.451,326.773 243.5,326.5C 243.785,324.712 243.452,323.045 242.5,321.5C 241.893,321.624 241.56,321.957 241.5,322.5C 230.486,327.232 220.153,326.232 210.5,319.5C 226.5,319.5 242.5,319.5 258.5,319.5C 258.5,311.167 258.5,302.833 258.5,294.5C 258.5,292.167 258.5,289.833 258.5,287.5 Z"/></g>
<g><path style="opacity:1" fill="#ff8623" d="M 511.5,308.5 C 512.482,311.962 512.815,315.629 512.5,319.5C 517.167,319.5 521.833,319.5 526.5,319.5C 524.129,325.181 520.129,326.681 514.5,324C 513.299,323.097 512.465,321.931 512,320.5C 511.501,316.514 511.334,312.514 511.5,308.5 Z"/></g>
<g><path style="opacity:1" fill="#ff831e" d="M 569.5,315.5 C 581.961,316.803 594.295,316.803 606.5,315.5C 607.66,318.57 606.993,321.404 604.5,324C 593.604,326.969 583.27,325.636 573.5,320C 571.959,318.629 570.625,317.129 569.5,315.5 Z"/></g>
<g><path style="opacity:1" fill="#ff731a" d="M 241.5,322.5 C 241.56,321.957 241.893,321.624 242.5,321.5C 243.452,323.045 243.785,324.712 243.5,326.5C 245.451,326.773 246.951,326.107 248,324.5C 248.674,325.578 249.674,326.245 251,326.5C 253.462,325.841 255.962,325.507 258.5,325.5C 257.439,328.511 256.273,331.511 255,334.5C 254.292,335.381 253.458,336.047 252.5,336.5C 236.481,336.353 220.481,336.019 204.5,335.5C 204.5,334.167 204.5,332.833 204.5,331.5C 205.515,328.564 207.682,327.231 211,327.5C 214.942,328.389 218.442,330.222 221.5,333C 231.107,335.689 238.107,332.689 242.5,324C 242.43,323.235 242.097,322.735 241.5,322.5 Z"/></g>
<g><path style="opacity:1" fill="#ff811b" d="M 204.5,331.5 C 204.5,332.833 204.5,334.167 204.5,335.5C 220.481,336.019 236.481,336.353 252.5,336.5C 251.797,338.716 250.464,340.549 248.5,342C 232.687,352.902 217.854,351.735 204,338.5C 203.204,335.961 203.371,333.628 204.5,331.5 Z"/></g>
</svg>
